<svg width="317" height="35" viewBox="0 0 317 35" fill="none" xmlns="http://www.w3.org/2000/svg">
<rect width="317" height="35" fill="white"/>
<g clip-path="url(#clip0_1410_8360)">
<path d="M279.451 12.3244L285.653 10.3284C284.227 4.8989 279.416 2 273.82 2C266.846 2 259.824 6.69289 259.824 16.9697C259.824 27.2466 266.477 31.9038 273.57 31.9038C279.404 31.9038 284.786 28.7673 286.627 22.8863L280.627 20.2726C279.974 23.4566 277.075 25.3338 273.808 25.3338C270.101 25.3338 266.751 22.8388 266.751 16.8509C266.751 10.863 270.137 8.43936 273.725 8.43936C276.624 8.43936 278.952 9.94821 279.439 12.3125" fill="black"/>
<path d="M71.716 18.8352L75.4941 8.34452L79.189 18.7045L75.6011 20.8549L71.716 18.8352ZM71.0864 2.62988L60.2393 31.2743H67.6647L70.029 24.3954L75.6486 27.0923L80.983 24.2291L83.3354 31.2743H90.7609L79.9019 2.62988H71.0864Z" fill="black"/>
<path d="M49.4517 2.61768V14.4628L44.2242 11.4451L38.8778 14.4628V2.61768H32.1533V31.2503H38.8778V21.5814L44.3311 18.5636L49.4517 21.5814V31.2503H56.1881V2.61768H49.4517Z" fill="black"/>
<path d="M307.275 2.61768V14.4628L302.047 11.4451L296.701 14.4628V2.61768H289.977V31.2503H296.701V21.5814L302.154 18.5636L307.275 21.5814V31.2503H313.999V2.61768H307.275Z" fill="black"/>
<path d="M231.951 14.736V8.73626H237.666C239.793 8.73626 240.767 10.1263 240.767 11.5876C240.767 13.1321 239.626 14.7241 237.464 14.7241H231.951V14.736ZM238.925 2.61768H225.215V31.2621H231.951V20.819H235.218L241.42 31.2621H249.333L241.788 19.0606C245.828 17.3854 247.705 13.9994 247.705 10.6966C247.705 6.57396 244.64 2.61768 238.937 2.61768" fill="black"/>
<path d="M201.395 2.61768V31.2503H220.736V25.1317H208.131V19.8685H217.921V13.7499H208.131V8.73626H220.736V2.61768H201.395Z" fill="black"/>
<path d="M158.433 2.61768V20.1536L148.109 2.61768H140.684V31.2503H147.42V13.7974L157.697 31.2503H165.158V2.61768H158.433Z" fill="black"/>
<path d="M116.852 2.61768V31.2503H136.193V25.1317H123.588V19.8685H133.378V13.7499H123.588V8.73626H136.193V2.61768H116.852Z" fill="black"/>
<path d="M21.627 12.3244L27.8287 10.3284C26.403 4.8989 21.5795 2 15.9955 2C9.02151 2 2 6.69289 2 16.9697C2 27.2466 8.65321 31.9038 15.746 31.9038C21.5795 31.9038 26.9614 28.7673 28.8029 22.8863L22.8032 20.2726C22.1497 23.4566 19.2508 25.3338 15.9836 25.3338C12.2768 25.3338 8.92647 22.8388 8.92647 16.8509C8.92647 10.863 12.3125 8.43936 15.9005 8.43936C18.7994 8.43936 21.128 9.94821 21.6151 12.3125" fill="black"/>
<path d="M94.4561 31.2504H112.574V25.1318H101.192V2.60596H94.4561V31.2504Z" fill="black"/>
<path d="M255.048 24.1934C252.921 24.1934 251.377 25.7854 251.377 27.8645C251.377 29.9436 252.933 31.5357 255.048 31.5357C257.163 31.5357 258.719 29.9436 258.719 27.8645C258.719 25.7854 257.163 24.1934 255.048 24.1934Z" fill="black"/>
<path d="M179.035 25.1318V8.73642H183.11C187.803 8.73642 189.562 12.4076 189.562 16.2807C189.562 20.8072 187.316 25.1318 181.97 25.1318H179.035ZM183.11 2.60596H172.299V31.2504H182.219C191.688 31.2504 196.5 24.1457 196.5 16.3995C196.5 8.65325 192.14 2.60596 183.122 2.60596" fill="black"/>
</g>
<defs>
<clipPath id="clip0_1410_8360">
<rect width="312" height="29.9038" fill="white" transform="translate(2 2)"/>
</clipPath>
</defs>
</svg>
