<svg width="162" height="48" viewBox="0 0 162 48" fill="none" xmlns="http://www.w3.org/2000/svg">
<path d="M0.945 13.74H5.796V11.22C5.796 4.227 9.891 0.698996 15.561 0.698996C17.325 0.698996 19.278 1.077 21.294 1.77V10.275C20.412 9.897 19.593 9.708 18.837 9.708C16.947 9.708 15.624 10.779 15.624 12.606V13.74H21.294V22.371H15.624V46.5H5.796V22.371H0.945V13.74ZM34.6121 47.067C28.5641 47.067 24.4691 43.035 24.4691 37.113C24.4691 29.301 31.8401 27.726 35.3051 27.033L38.5181 26.403C40.6601 25.962 42.6131 25.458 42.6131 23.442C42.6131 21.678 41.1641 20.859 38.6441 20.859C35.3681 20.859 33.2891 22.497 32.5961 25.08L24.5321 22.182C26.7371 15.693 32.4701 12.921 39.2741 12.921C47.2121 12.921 52.4411 16.386 52.4411 25.458V36.798C52.4411 38.436 53.1341 39.318 54.5831 39.318C55.0241 39.318 55.5281 39.255 56.0951 39.066V45.618C55.1501 46.5 53.4491 47.067 51.6221 47.067C48.4721 47.067 44.8811 45.366 44.3771 41.019C42.9911 44.673 39.3371 47.067 34.6121 47.067ZM34.4861 36.42C34.4861 38.247 35.6831 39.255 37.7621 39.255C40.7861 39.255 42.6131 36.924 42.6131 33.018V31.947C41.9831 32.262 41.1641 32.514 40.0931 32.766L37.7621 33.27C36.2501 33.585 34.4861 34.152 34.4861 36.42ZM61.1272 13.74H69.5062L70.1992 17.583C71.5222 15.126 73.7272 13.362 77.1922 13.362C78.0742 13.362 79.0192 13.488 80.0902 13.74V23.19C79.0192 22.812 77.8852 22.56 76.7512 22.56C73.6642 22.56 70.9552 24.261 70.9552 28.482V46.5H61.1272V13.74ZM86.6865 35.601C89.9625 35.601 92.3565 38.058 92.3565 41.271C92.3565 44.484 89.9625 46.941 86.6865 46.941C83.4105 46.941 81.0165 44.484 81.0165 41.271C81.0165 38.058 83.4105 35.601 86.6865 35.601ZM118.124 26.97C117.305 23.694 115.415 22.308 112.643 22.308C108.674 22.308 106.469 25.206 106.469 30.057C106.469 35.034 108.8 37.617 112.706 37.617C115.667 37.617 117.431 36.168 118.628 33.459L126.566 37.113C124.298 43.539 118.439 47.067 111.887 47.067C103.886 47.067 96.4515 41.838 96.4515 30.309C96.4515 18.717 103.949 12.921 112.706 12.921C118.124 12.921 124.298 15.126 126.503 23.631L118.124 26.97ZM132.248 1.329H142.076V16.638C144.155 14.181 146.612 12.921 150.329 12.921C155.999 12.921 161.039 16.638 161.039 24.009V46.5H151.211V26.844C151.211 24.009 149.447 22.308 146.801 22.308C144.092 22.308 142.076 24.072 142.076 27.474V46.5H132.248V1.329Z" fill="#1C2B33"/>
</svg>
