<?xml version="1.0" encoding="utf-8"?>
<!-- Generator: Adobe Illustrator 28.0.0, SVG Export Plug-In . SVG Version: 6.00 Build 0)  -->
<svg version="1.1" id="Ebene_1" xmlns="http://www.w3.org/2000/svg" xmlns:xlink="http://www.w3.org/1999/xlink" x="0px" y="0px"
	 viewBox="0 0 253.7 181.3" style="enable-background:new 0 0 253.7 181.3;" xml:space="preserve">
<g id="Isolationsmodus">
	<path d="M174.2,180.2l4.1-4.2c0.1-0.1,9.7-10.1,6.2-19.4c-3.6-9.4-15.6-9.5-17.7-9.4h-0.5c-0.3,0-0.6,0-0.9,0h-19.2h-113
		c-12.1,0-19.4-4.8-23.5-8.8c-8.6-8.6-8.8-22.5-8.8-23.5c0-0.3,0-0.6,0-0.9v-11.7V33.5C0.8,21.4,5.6,14,9.6,10
		c8.6-8.6,22.6-8.8,23.5-8.8h187.4C232.7,1.2,240,6,244,10s8.9,11.4,8.8,23.5v78c0,12.1-0.1,32.2-21.3,48.8
		c-23,17.9-50.4,19.6-51.6,19.6L174.2,180.2z M167.5,142.7c4.6,0,16.9,1.1,21.2,12.3c2.9,7.7-0.6,15.2-3.6,19.7
		c9-1.4,27.7-5.6,43.7-18c19.5-15.2,19.5-34,19.6-45.2v-0.8V33.5c0-10.5-4.1-16.8-7.5-20.3c-5-5-11.8-7.5-20.3-7.5l0,0
		c-7.7,0-184.9,0-187.5,0l0,0c-0.1,0-12.9,0.1-20.3,7.5l0,0c-5,5-7.5,11.8-7.5,20.3c0,27.7,0,79.8,0,81.4l0,0
		c0,0.1,0.1,12.9,7.5,20.3c5,5,11.8,7.5,20.2,7.5l0,0c44,0,126.1,0,133.2,0l0,0c0.1,0,0.1,0,0.2,0h0.1
		C166.9,142.7,167.2,142.7,167.5,142.7z"/>
</g>
<g id="Ebene_3">
</g>
<g>
	<path d="M105.3,57.6c-3.1,0-4.5,1.7-4.5,5.8v22.8c0,4.9,0.3,7,2.2,9.4c1.2,1.8,2.9,3.1,4.9,3.9s4.8,1.3,7.5,1.3
		c3,0,5.4-0.6,7.4-1.8l0.9-0.5c0.5-0.4,1-0.5,1.1-0.5c0.1,0,0.2,0.1,0.5,0.5l0.5,0.6c0.8,1,2.1,1.6,3.4,1.6c3.2,0,4.8-2,4.8-5.8h0.1
		V63.6c0-4.4-1.3-6-4.7-6c-3.2,0-4.8,2.1-4.8,6.3v18.8c0,3.8-0.2,5.6-0.9,6.9c-1,2-3.7,3.5-6.7,3.5c-2.8,0-5.1-1-5.9-2.6
		c-0.8-1.4-1-2.1-1-6.5V63.3C110.1,59.4,108.6,57.6,105.3,57.6z"/>
	<path d="M174.9,74.9c4.3-2.2,5.6-3.5,6.9-6.8c0.9-2.2,1.4-4.6,1.4-7.2c0-10-6.1-16.2-15.9-16.2h-18.9c-2,0-3.2,0.3-4,1
		c-0.9,0.8-1,1.3-1,3.6v45.4c0,4.2,1.4,5.9,5,5.9c3.2,0,4.8-1.9,4.8-5.9V79.6c0-1.5,0.3-2.1,2.4-2.1h5.2c1.8,0,2.4,0.4,3.2,2.1
		l8.6,17.1c1.5,3.1,2.2,3.9,4.4,3.9c3.2,0,5.6-2,5.6-4.8c0-0.6-0.4-1.5-1.4-3.5l-7.4-14.1c-0.4-0.9-0.7-1.5-0.8-1.9
		C173,75.9,173.3,75.7,174.9,74.9z M163.9,69.2h-8.4c-1.8,0-2.2-0.4-2.2-1.9V55.1c0-1.5,0.7-2.1,2.2-2.1h9.2c5.2,0,8.2,3.1,8.2,8.3
		S169.8,69.2,163.9,69.2z"/>
	<path d="M194.9,57.6c-3.1,0-4.5,1.7-4.5,5.8v22.8c0,4.9,0.3,7,2.2,9.4c1.2,1.8,2.9,3.1,4.9,3.9s4.8,1.3,7.5,1.3
		c3,0,5.4-0.6,7.4-1.8l0.9-0.5c0.5-0.3,0.9-0.5,1.1-0.5c0.1,0,0.2,0.1,0.5,0.5l0.5,0.6c0.8,1,2.1,1.6,3.4,1.6c3.2,0,4.8-2,4.8-5.8
		h0.1V63.6c0-4.4-1.3-6-4.7-6c-3.2,0-4.8,2.1-4.8,6.3v18.8c0,3.8-0.2,5.6-0.9,6.9c-1,2-3.7,3.5-6.7,3.5c-2.8,0-5.1-1-5.9-2.6
		c-0.8-1.4-1-2.1-1-6.5V63.3C199.7,59.4,198.2,57.6,194.9,57.6z"/>
	<path d="M87.2,54.6c2.9,0,4.7-2.1,4.7-5.3c0-3.3-1.8-5.4-4.8-5.4c-2.9,0-4.7,2.1-4.7,5.5C82.4,52.8,84,54.6,87.2,54.6z"/>
	<path d="M46.5,53.8c1.9-0.9,4-1.3,6.3-1.3c4.4,0,7.6,1.4,10,4.3c2.7,3.5,3.2,3.7,5.3,3.7c2.5,0,4.6-2,4.6-4.5
		c0-2.7-2.5-6.1-6.1-8.4c-3.6-2.5-8.5-3.9-13.9-3.9c-7.3,0-14,2.8-17.8,7.4C31,56,29.2,62.7,29.2,72.8c0,10.7,1.7,16.8,5.7,21
		c4.3,4.5,10.5,6.8,18.5,6.8c13.2,0,21.1-6.4,21.1-17V73.5c0-1.6-0.5-3.2-1.1-3.8c-0.8-0.7-1.6-0.8-4.7-0.8H55.6
		c-4,0-5.5,1.1-5.5,4.2c0,3,1.6,4.2,5.5,4.2h7c2,0,2.3,0.3,2.3,2.1v3.5c0,6.4-4,9.7-11.6,9.7c-10.1,0-13.9-5.5-13.9-20.4
		C39.4,61.2,41.4,56.1,46.5,53.8z"/>
	<path d="M87.5,100.7c2.9,0,4.5-1.8,4.5-5.1V63.2c0-3.8-1.5-5.6-4.8-5.6c-3.2,0-4.5,1.7-4.5,5.7v32C82.7,98.7,84.5,100.7,87.5,100.7
		z"/>
</g>
</svg>
