<svg width="541" height="144" viewBox="0 0 541 144" fill="none" xmlns="http://www.w3.org/2000/svg">
    <g clip-path="url(#clip0_382_3681)">
        <path d="M208.1 83.2996H190V52.5996H185.4V87.7996H208.1V83.2996Z" fill="#EF7B65"/>
        <path d="M218.701 62.5996H214.301V87.6996H218.701V62.5996Z" fill="#EF7B65"/>
        <path
            d="M219.801 54.9998C219.801 53.1998 218.301 51.7998 216.601 51.7998C214.801 51.7998 213.301 53.1998 213.301 54.9998C213.301 56.7998 214.801 58.1998 216.601 58.1998C218.401 58.2998 219.801 56.7998 219.801 54.9998Z"
            fill="#EF7B65"/>
        <path
            d="M240.101 75.6998V78.2998C239.901 85.0998 228.901 86.0998 228.901 80.7998C228.901 77.0998 234.201 76.2998 240.101 75.6998ZM224.801 80.6998C224.801 85.0998 228.301 87.9998 233.301 87.9998C236.501 87.9998 239.101 86.7998 240.601 84.6998C241.401 86.7998 242.801 87.9998 245.001 87.9998C249.001 87.9998 249.901 84.1998 249.901 84.1998L247.301 82.7998C247.301 82.7998 247.001 84.3998 245.701 84.3998C244.701 84.3998 244.101 83.5998 244.101 81.2998V72.5998C244.101 65.2998 240.201 62.2998 235.001 62.2998C229.201 62.2998 225.901 65.8998 225.501 69.3998H229.801C229.801 69.3998 230.501 66.2998 234.901 66.2998C238.901 66.2998 240.101 68.7998 240.201 71.8998C234.401 72.5998 224.801 73.2998 224.801 80.6998Z"
            fill="#EF7B65"/>
        <path
            d="M270.2 69.5996V56.6996H277.6C281.1 56.6996 284.8 58.1996 284.8 62.8996C284.8 67.5996 281.1 69.5996 277.6 69.5996H270.2ZM289.3 62.8996C289.3 56.1996 283.9 52.5996 278.1 52.5996H266V87.7996H270.3V73.6996H276.6L285.9 87.7996H291L281.5 73.2996C285.8 71.9996 289.3 68.2996 289.3 62.8996Z"
            fill="#EF7B65"/>
        <path
            d="M312.2 75.8996C312.2 81.4996 309.9 84.0996 306.1 84.0996C300.9 84.0996 300 79.2996 300 74.6996V62.5996H295.6V76.1996C295.6 83.1996 298.8 87.9996 305.2 87.9996C309 87.9996 311.1 86.2996 312.2 85.0996H312.9L313.7 87.7996H316.6V62.5996H312.2V75.8996Z"
            fill="#EF7B65"/>
        <path
            d="M357.7 87.7998V74.0998C357.7 67.1998 354.7 62.2998 348.9 62.2998C345 62.2998 342.6 64.4998 341.2 66.2998H340.3C338.8 64.1998 336.6 62.2998 333.3 62.2998C330 62.2998 327.8 64.2998 326.9 65.3998H326.2L325.3 62.5998H322.4V87.6998H326.8V73.3998C326.8 68.7998 329.6 66.1998 332.9 66.1998C337.2 66.1998 337.8 70.7998 337.8 75.5998V87.6998H342.2V73.0998C342.4 68.6998 345.1 66.1998 348.3 66.1998C352.6 66.1998 353.2 70.7998 353.2 75.5998V87.6998H357.7V87.7998Z"
            fill="#EF7B65"/>
        <path
            d="M378.6 78.4004C378.4 85.2004 367.4 86.2004 367.4 80.9004C367.4 77.2004 372.6 76.4004 378.6 75.8004V78.4004ZM385.4 87.8004V84.5004C383.5 84.5004 382.7 83.8004 382.7 81.4004V72.7004C382.7 65.4004 378.8 62.4004 373.6 62.4004C367.8 62.4004 364.5 66.0004 364.1 69.5004H368.4C368.4 69.5004 369.1 66.4004 373.5 66.4004C377.5 66.4004 378.7 68.9004 378.8 72.0004C373 72.7004 363.4 73.4004 363.4 80.7004C363.4 85.1004 366.9 88.0004 371.9 88.0004C375.1 88.0004 377.7 86.8004 379.2 84.7004C379.9 86.8004 381.4 87.7004 383.7 87.7004H385.4V87.8004Z"
            fill="#EF7B65"/>
        <path
            d="M412.101 87.7998V74.0998C412.101 67.0998 408.901 62.2998 402.601 62.2998C398.401 62.2998 396.201 64.2998 395.201 65.3998H394.601L393.701 62.4998H390.801V87.5998H395.201V73.3998C395.201 68.9998 398.201 66.1998 402.001 66.1998C407.001 66.1998 407.701 71.1998 407.701 75.5998V87.6998H412.101V87.7998Z"
            fill="#EF7B65"/>
        <path
            d="M430.1 83.2996C429.6 83.6996 429.1 83.9996 428.1 83.9996C426.4 83.9996 424.9 82.8996 424.9 79.6996V66.2996H430.9V62.5996H424.8V55.0996H421.1V59.5996C421.1 61.6996 419.7 63.0996 417.7 63.0996H416.1V66.3996H420.5V80.1996C420.5 84.7996 423.2 87.9996 427.5 87.9996C429.8 87.9996 431.2 86.9996 431.9 86.3996L430.1 83.2996Z"
            fill="#EF7B65"/>
        <path
            d="M445.4 73.1004C442.9 72.4004 440.6 71.6004 440.6 69.3004C440.6 67.2004 442.4 65.9004 444.7 65.9004C447.4 65.9004 449.3 67.6004 449.3 69.5004H453.4C453.4 66.0004 450.3 62.4004 444.7 62.4004C440.1 62.4004 436.4 64.9004 436.4 69.4004C436.4 74.4004 441.1 75.8004 444.5 76.7004C447.3 77.5004 449.7 78.3004 449.7 80.8004C449.7 83.3004 447.5 84.4004 445.1 84.4004C442.3 84.4004 439.7 82.8004 439.7 79.7004H435.6C435.6 84.3004 439.4 88.0004 445.1 88.0004C450 88.0004 453.8 85.2004 453.8 80.6004C453.9 75.4004 449.2 74.1004 445.4 73.1004Z"
            fill="#EF7B65"/>
        <path
            d="M482.299 78.9004H477.799C476.599 81.9004 474.099 83.9004 470.799 83.9004C466.299 83.9004 463.199 80.1004 463.199 75.2004C463.199 70.3004 466.299 66.5004 470.799 66.5004C474.199 66.5004 476.799 68.7004 477.899 71.8004H482.399C481.499 66.2004 476.099 62.4004 470.799 62.4004C464.499 62.4004 458.699 67.8004 458.699 75.2004C458.699 82.6004 464.499 88.0004 470.799 88.0004C476.099 88.0004 481.099 84.3004 482.299 78.9004Z"
            fill="#EF7B65"/>
        <path
            d="M488.201 52.1L487.801 87.8H492.201V73.4C492.201 69 495.201 66.2 499.001 66.2C504.001 66.2 504.701 71.2 504.701 75.6V87.7H509.101V74.1C509.101 67.1 505.901 62.3 499.701 62.3C496.001 62.3 493.801 64 492.701 65.2H492.201L492.601 52H488.201V52.1Z"
            fill="#EF7B65"/>
        <path
            d="M530.499 78.3998C530.299 85.1998 519.299 86.1998 519.299 80.8998C519.299 77.1998 524.499 76.3998 530.499 75.7998V78.3998ZM540.299 84.1998L537.699 82.7998C537.699 82.7998 537.399 84.3998 536.099 84.3998C535.099 84.3998 534.499 83.5998 534.499 81.2998V72.5998C534.499 65.2998 530.599 62.2998 525.399 62.2998C519.599 62.2998 516.299 65.8998 515.899 69.3998H520.199C520.199 69.3998 520.899 66.2998 525.299 66.2998C529.299 66.2998 530.499 68.7998 530.599 71.8998C524.799 72.5998 515.199 73.2998 515.199 80.5998C515.199 84.9998 518.699 87.8998 523.699 87.8998C526.899 87.8998 529.499 86.6998 530.999 84.5998C531.799 86.6998 533.199 87.8998 535.399 87.8998C539.399 87.9998 540.299 84.1998 540.299 84.1998Z"
            fill="#EF7B65"/>
        <path
            d="M99.5997 38.3998C104.4 38.3998 109.2 39.0998 113.8 40.3998C112.1 33.5998 108.8 27.0998 104 21.3998C86.9997 1.09978 56.5997 -1.60023 36.1997 15.4998C31.5997 19.2998 27.8997 23.8998 25.0997 28.8998C38.1997 20.9998 54.5997 18.7998 70.0997 24.3998C78.7997 27.4998 85.9997 32.6998 91.5997 38.9998C94.2997 38.5998 96.9997 38.3998 99.5997 38.3998ZM94.6997 42.8998C103 54.3998 106.5 69.1998 103.7 83.6998C113 72.8998 116.8 58.6998 114.8 45.0998C108.4 42.9998 101.6 42.1998 94.6997 42.8998ZM21.7997 36.3998C20.4997 40.0998 19.6997 43.9998 19.2997 48.0998C18.1997 60.8998 22.0997 73.3998 30.3997 83.1998C35.1997 88.8998 41.0997 93.1998 47.4997 96.0998C46.1997 83.5998 49.3997 71.0998 56.6997 60.6998C63.9997 50.2998 74.4997 43.0998 86.7997 39.9998C81.8997 34.9998 75.7997 30.8998 68.7997 28.3998C52.2997 22.3998 34.4997 25.9998 21.7997 36.3998ZM51.9997 97.8998C67.1997 103 84.4997 100.4 97.7997 89.4998C103.5 73.3998 99.9997 56.1998 89.9997 43.5998C77.7997 46.0998 67.2997 52.9998 60.0997 63.1998C52.9997 73.3998 50.0997 85.6998 51.9997 97.8998ZM52.8997 102.6C54.5997 109.3 57.5997 115.4 61.8997 120.7C75.3997 118 87.3997 109.5 94.2997 97.0998C81.5997 104.8 66.5997 106.5 52.8997 102.6ZM15.8997 42.1998C12.1997 46.4998 9.19966 51.4998 7.19966 57.0998C-1.90034 81.9998 10.9997 109.7 35.8997 118.8C42.8997 121.3 50.0997 122.2 57.0997 121.5C52.6997 115.5 49.6997 108.6 48.1997 101.1C40.2997 97.9998 32.9997 92.8998 27.0997 85.9998C18.0997 75.2998 13.7997 61.6998 15.0997 47.7998C15.2997 45.8998 15.4997 43.9998 15.8997 42.1998ZM65.0997 124.4C67.1997 126.5 69.4997 128.5 71.9997 130.2C93.6997 145.4 123.8 140.1 139 118.4C154.2 96.6998 148.9 66.5998 127.2 51.3998C124.7 49.6998 122.1 48.1998 119.4 46.8998C121.1 63.3998 114.9 80.4998 101.4 91.9998C95.0997 108.7 81.0997 120.3 65.0997 124.4ZM99.3997 143.1C88.9997 143.1 78.5997 140 69.4997 133.7C65.9997 131.3 62.8997 128.5 60.1997 125.4C51.7997 126.7 42.9997 126 34.3997 122.8C7.29966 112.9 -6.70034 82.7998 3.09966 55.6998C6.29966 46.9998 11.5997 39.5998 18.1997 33.8998C21.2997 25.4998 26.5997 18.0998 33.5997 12.1998C55.6997 -6.40023 88.7997 -3.50023 107.3 18.5998C113.1 25.5998 116.9 33.5998 118.5 41.8998C122.3 43.3998 126 45.3998 129.5 47.7998C153.1 64.3998 158.9 96.9998 142.3 120.7C132.2 135.3 116 143.1 99.3997 143.1Z"
            fill="#EF7B65"/>
    </g>
    <defs>
        <clipPath id="clip0_382_3681">
            <rect width="540.3" height="143.1" fill="white"/>
        </clipPath>
    </defs>
</svg>
